<svg xmlns="http://www.w3.org/2000/svg" xmlns:xlink="http://www.w3.org/1999/xlink" version="1.1" x="0px" y="0px" viewBox="0 0 100 125" enable-background="new 0 0 100 100" xml:space="preserve"><g><path d="M54.125,47.218c0.741-1.102,1.043-2.429,1.158-3.736c0.101-1.314-0.001-2.646-0.303-3.918   c-0.309-1.264-0.814-2.503-1.633-3.448c-0.397-0.472-0.909-0.825-1.467-1.118c-0.546-0.288-1.146-0.488-1.756-0.591   c-2.484-0.429-5.028,0.586-7.32,1.792c-1.178,0.617-2.246,1.313-3.473,2.018c-1.266,0.667-2.617,1.176-4.139,1.281   c-0.746,0.052-1.59-0.038-2.328-0.347c-0.667-0.254-1.391-0.657-1.975-1.137c-1.206-0.979-2.05-2.424-2.341-3.928   c-0.04-0.188-0.074-0.375-0.095-0.564l-0.038-0.301l-0.02-0.265c-0.021-0.431-0.003-0.807,0.05-1.21   c0.105-0.792,0.368-1.57,0.791-2.262c0.419-0.692,0.983-1.309,1.663-1.771c0.654-0.462,1.505-0.785,2.206-0.896   c0.757-0.14,1.534-0.208,2.366-0.059c0.827,0.143,1.619,0.554,2.205,1.087c0.295,0.265,0.556,0.549,0.788,0.843l0.102,0.129   l0.074,0.104c0.068,0.103,0.14,0.214,0.186,0.305c0.104,0.19,0.187,0.385,0.253,0.58c0.269,0.783,0.29,1.579,0.167,2.346   c-0.136,0.761-0.43,1.531-1.009,2.132c-0.287,0.295-0.643,0.544-1.029,0.689c-0.376,0.144-0.764,0.21-1.148,0.222   c-0.753,0.003-1.58-0.206-2.11-0.843c-0.261-0.313-0.375-0.723-0.371-1.094c0.015-0.375,0.122-0.72,0.264-1.034   c0.023-0.05,0.083-0.073,0.133-0.05c0.044,0.02,0.067,0.068,0.056,0.114c-0.148,0.636-0.077,1.32,0.345,1.668   c0.411,0.354,1.043,0.422,1.604,0.318c0.582-0.1,1.07-0.357,1.367-0.77c0.31-0.415,0.482-0.966,0.521-1.527   c0.038-0.562-0.057-1.141-0.261-1.616c-0.051-0.119-0.109-0.23-0.175-0.329c-0.034-0.057-0.06-0.083-0.084-0.119l-0.079-0.095   l-0.02-0.024c0.004,0.006-0.025-0.031,0.008,0.011l-0.009-0.01l-0.039-0.04c-0.203-0.217-0.416-0.41-0.634-0.577   c-0.863-0.674-1.875-0.728-3.031-0.436c-2.241,0.404-3.494,2.731-3.036,4.964c0.187,1.136,0.708,2.174,1.549,2.939   c0.44,0.387,0.887,0.673,1.46,0.926c0.496,0.233,1.016,0.314,1.606,0.306c1.166-0.022,2.41-0.419,3.527-0.96   c1.121-0.589,2.336-1.31,3.56-1.892c1.232-0.596,2.52-1.122,3.882-1.457c1.355-0.335,2.814-0.461,4.229-0.153   c0.707,0.152,1.382,0.42,2.006,0.788c0.61,0.358,1.199,0.814,1.642,1.395c0.888,1.142,1.341,2.494,1.603,3.838   c0.25,1.353,0.283,2.733,0.11,4.087c-0.185,1.342-0.57,2.706-1.392,3.805c-0.031,0.045-0.094,0.057-0.139,0.026   C54.108,47.327,54.098,47.264,54.125,47.218z"/></g><g><path d="M47.771,59.2c-2.803,0.752-5.704,1.333-8.658,1.268c-1.478-0.049-2.929-0.149-4.404-0.529   c-1.454-0.381-2.835-1.039-4.075-1.891c-2.479-1.727-4.373-4.164-5.743-6.811c-1.367-2.659-2.249-5.563-2.585-8.554   c-0.171-1.5-0.202-3.008-0.035-4.55c0.164-1.469,0.458-2.996,0.952-4.445c0.5-1.453,1.205-2.873,2.187-4.126   c1.001-1.235,2.288-2.3,3.744-2.967c1.46-0.656,3.064-0.998,4.677-0.907c1.604,0.1,3.229,0.655,4.453,1.736   c1.353,1.255,1.623,3.073,1.258,4.605c-0.206,0.771-0.594,1.505-1.189,2.044c-0.586,0.552-1.41,0.81-2.16,0.727   c-0.055-0.005-0.096-0.055-0.09-0.11c0.004-0.048,0.043-0.085,0.09-0.09c0.707-0.071,1.332-0.416,1.744-0.928   c0.416-0.513,0.639-1.163,0.708-1.814c0.176-1.292-0.31-2.697-1.224-3.338c-2.144-1.49-5.102-1.317-7.403-0.122   c-2.364,1.148-3.96,3.413-4.934,5.961c-0.499,1.284-0.822,2.615-1.042,4.025c-0.205,1.341-0.245,2.757-0.145,4.149   c0.216,2.795,0.953,5.574,2.157,8.126c1.207,2.543,2.912,4.892,5.163,6.577c1.117,0.846,2.37,1.515,3.712,1.934   c1.325,0.412,2.79,0.589,4.208,0.699c2.868,0.196,5.756-0.24,8.587-0.863c0.054-0.012,0.107,0.022,0.119,0.076   C47.855,59.134,47.822,59.186,47.771,59.2z"/></g><g><path d="M46.736,63.44c-3.172,0.438-6.383,0.829-9.659,0.661c-3.256-0.146-6.625-0.961-9.517-2.768   c-2.886-1.831-5.164-4.342-7.059-7.101c-1.875-2.78-3.281-5.912-4.027-9.252c-0.76-3.358-0.788-6.83-0.34-10.195   c0.466-3.37,1.525-6.572,2.822-9.57c0.668-1.494,1.353-2.964,2.07-4.402c0.731-1.415,1.373-2.758,1.776-4.096   c0.375-1.319,0.459-2.696-0.114-3.861c-0.602-1.193-1.76-2.346-3.23-2.705l0.003-0.4c0.864-0.127,1.762,0.083,2.563,0.453   c0.803,0.378,1.535,0.917,2.155,1.631c1.269,1.509,1.581,3.583,1.377,5.375c-0.169,1.821-0.773,3.457-1.292,4.981   c-0.538,1.507-1.094,2.987-1.588,4.476c-1.028,2.959-1.992,5.867-2.638,8.808c-0.67,2.929-0.874,5.966-0.418,8.901   c0.465,2.949,1.539,5.84,3.082,8.468c1.555,2.608,3.536,5.068,5.97,6.826c2.428,1.802,5.412,2.812,8.517,3.204   c3.111,0.399,6.317,0.298,9.513,0.169L46.736,63.44z"/></g><g><path d="M30.814,62.814c-1.991-0.933-4.218-1.207-6.295-0.97c-1.036,0.118-2.047,0.364-2.766,0.846   c-0.722,0.477-1.264,1.228-1.493,2.034c-0.228,0.813-0.109,1.634,0.267,2.234c0.315,0.561,0.879,1.085,1.531,1.442   c0.316,0.189,0.65,0.286,0.923,0.326c0.275,0.049,0.502,0.019,0.849-0.172c0.307-0.188,0.588-0.448,0.704-0.749   c0.151-0.296,0.034-0.768-0.325-1.226c-0.055-0.07-0.043-0.171,0.027-0.227c0.036-0.028,0.082-0.038,0.124-0.032   c0.595,0.083,1.313,0.544,1.52,1.391c0.189,0.825-0.083,1.641-0.525,2.259c-0.401,0.632-1.203,1.182-2.041,1.352   c-0.834,0.183-1.629,0.06-2.345-0.154c-1.409-0.462-2.649-1.52-3.189-3.033c-0.514-1.453-0.352-3.021,0.224-4.279   c0.566-1.272,1.552-2.319,2.78-2.922c0.157-0.077,0.303-0.137,0.48-0.202c0.19-0.071,0.329-0.108,0.457-0.141   c0.354-0.083,0.629-0.143,0.945-0.179c0.611-0.084,1.216-0.104,1.81-0.076c1.19,0.057,2.34,0.297,3.441,0.651   c1.092,0.357,2.162,0.875,3.05,1.568l0.004,0.003c0.065,0.051,0.077,0.146,0.026,0.211C30.953,62.827,30.877,62.844,30.814,62.814z   "/></g><g><path d="M22.282,56.091c-1.192-1.821-2.94-3.212-4.83-4.101c-0.944-0.441-1.935-0.777-2.836-0.747   c-0.899,0.036-1.781,0.412-2.421,1.004c-0.646,0.593-1.009,1.392-1.017,2.155c-0.038,0.711,0.2,1.504,0.623,2.174   c0.2,0.339,0.465,0.61,0.725,0.79c0.256,0.189,0.524,0.266,0.938,0.25c0.768-0.053,1.54-0.45,1.293-1.657   c-0.014-0.071,0.031-0.14,0.103-0.154c0.042-0.009,0.086,0.007,0.116,0.033c0.434,0.387,0.771,1.12,0.518,1.893   c-0.255,0.75-0.877,1.27-1.54,1.549c-0.641,0.308-1.541,0.358-2.294,0.088c-0.756-0.258-1.34-0.745-1.816-1.271   c-0.92-1.067-1.417-2.534-1.135-4.021c0.272-1.434,1.154-2.647,2.238-3.411c1.087-0.776,2.415-1.158,3.721-1.057   c1.314,0.123,2.414,0.684,3.396,1.282c0.978,0.636,1.845,1.397,2.606,2.244c0.759,0.844,1.411,1.797,1.835,2.838   c0.027,0.064-0.003,0.138-0.067,0.164C22.379,56.162,22.315,56.14,22.282,56.091z"/></g><g><path d="M16.495,44.821c-0.479-1.694-1.492-3.185-2.735-4.323c-0.619-0.569-1.305-1.064-2.006-1.262   c-0.703-0.19-1.474-0.112-2.112,0.189C9,39.727,8.526,40.256,8.334,40.844c-0.049,0.126-0.094,0.342-0.111,0.405   c-0.012,0.093-0.049,0.258-0.039,0.286L8.176,41.73c-0.006,0.309,0.032,0.64,0.116,0.944c0.069,0.314,0.215,0.58,0.37,0.786   c0.08,0.1,0.165,0.192,0.269,0.252l0.039,0.026c-0.009,0,0.046,0.018-0.014,0.004l0.04,0.014l0.148,0.057   c0.044,0.021,0.103,0.047,0.186,0.066c0.607,0.144,1.296,0.017,1.397-0.971c0.006-0.058,0.058-0.1,0.115-0.094   c0.034,0.003,0.064,0.025,0.081,0.053c0.237,0.405,0.317,1.046-0.061,1.58c-0.376,0.519-0.979,0.76-1.556,0.82   c-0.14,0.016-0.302,0.019-0.478,0.006l-0.178-0.014l-0.042-0.004l-0.093-0.023l-0.119-0.031c-0.32-0.078-0.614-0.234-0.874-0.418   c-0.515-0.381-0.855-0.893-1.09-1.413c-0.225-0.529-0.35-1.087-0.338-1.668c-0.001-0.137,0.006-0.296,0.034-0.47   c0.024-0.195,0.048-0.245,0.071-0.371c0.091-0.369,0.19-0.575,0.325-0.854c0.553-1.037,1.522-1.758,2.54-2.086   c1.022-0.335,2.136-0.312,3.116,0.08c0.979,0.412,1.694,1.105,2.305,1.803c1.171,1.451,2.027,3.164,2.204,4.978   c0.007,0.055-0.032,0.105-0.087,0.112C16.555,44.899,16.509,44.866,16.495,44.821z"/></g><g><path d="M16.56,33.129c0.051-1.473-0.378-2.923-1.082-4.153c-0.172-0.309-0.368-0.602-0.587-0.866   c-0.097-0.128-0.243-0.274-0.324-0.358c-0.14-0.126-0.286-0.254-0.395-0.312c-0.503-0.331-1.166-0.468-1.761-0.393   c-0.6,0.085-1.139,0.38-1.454,0.823c-0.086,0.085-0.168,0.253-0.211,0.307c-0.104,0.209-0.109,0.247-0.16,0.39   c-0.085,0.256-0.137,0.541-0.142,0.815c-0.019,0.279,0.037,0.54,0.122,0.755c0.046,0.105,0.098,0.206,0.175,0.282l0.028,0.031   c-0.005,0,0.031,0.025-0.008,0.003l0.028,0.021l0.106,0.081c0.035,0.03,0.081,0.065,0.145,0.1c0.47,0.268,1.104,0.29,1.385-0.485   c0.015-0.04,0.059-0.061,0.099-0.046c0.026,0.01,0.045,0.036,0.05,0.061c0.077,0.383-0.036,0.889-0.451,1.213   c-0.418,0.308-0.946,0.343-1.408,0.247c-0.113-0.023-0.238-0.061-0.37-0.113l-0.137-0.057l-0.032-0.014l-0.064-0.039l-0.084-0.053   c-0.228-0.138-0.416-0.331-0.571-0.536c-0.304-0.42-0.445-0.901-0.499-1.364c-0.089-0.944,0.17-1.869,0.891-2.597   c0.669-0.687,1.607-1.008,2.482-1.029c0.887-0.008,1.747,0.26,2.439,0.823c0.198,0.155,0.315,0.291,0.44,0.426   c0.163,0.197,0.265,0.33,0.379,0.508c0.224,0.334,0.408,0.684,0.563,1.043c0.583,1.438,0.85,3.011,0.556,4.502   c-0.007,0.041-0.045,0.069-0.086,0.062C16.585,33.2,16.56,33.166,16.56,33.129z"/></g><g><path d="M19.301,24.352c0.67-1.046,0.954-2.297,0.957-3.497c-0.001-0.6-0.069-1.205-0.313-1.693   c-0.249-0.485-0.68-0.872-1.173-1.077c-0.495-0.201-1.042-0.21-1.494-0.02c-0.415,0.155-0.841,0.546-1.063,0.977   c-0.25,0.449-0.313,0.883-0.035,1.292c0.265,0.421,0.809,0.634,1.292,0.156c0.02-0.02,0.052-0.02,0.072,0   c0.014,0.015,0.017,0.038,0.01,0.056c-0.114,0.302-0.4,0.605-0.815,0.66c-0.411,0.04-0.783-0.153-1.07-0.399   c-0.07-0.061-0.142-0.136-0.212-0.222l-0.073-0.098l-0.017-0.024l-0.028-0.05l-0.037-0.069c-0.102-0.184-0.155-0.39-0.181-0.593   c-0.041-0.409,0.047-0.799,0.195-1.145c0.323-0.69,0.862-1.242,1.644-1.478c0.735-0.221,1.526-0.103,2.156,0.234   c0.637,0.33,1.148,0.876,1.421,1.529c0.263,0.662,0.27,1.346,0.221,1.987c-0.141,1.285-0.581,2.54-1.375,3.53   c-0.017,0.022-0.048,0.027-0.07,0.01C19.292,24.403,19.289,24.374,19.301,24.352z"/></g><g><path d="M42.037,64.045c-2.305-0.249-4.63,0.242-6.631,1.191c-0.997,0.479-1.929,1.07-2.489,1.812   c-0.566,0.734-0.854,1.685-0.807,2.583c0.051,0.905,0.455,1.705,1.049,2.194c0.076,0.061,0.146,0.125,0.227,0.18   c0.039,0.028,0.077,0.058,0.118,0.083l0.06,0.042l0.029,0.021l0.014,0.011l0.007,0.005l0.004,0.003   c-0.113-0.079-0.028-0.02-0.052-0.037c0.105,0.061,0.297,0.195,0.323,0.188c0.048,0.018,0.113,0.057,0.212,0.099   c0.351,0.155,0.753,0.277,1.144,0.334c0.396,0.082,0.767,0.048,1.07-0.013c0.301-0.06,0.531-0.188,0.809-0.509   c0.239-0.307,0.425-0.679,0.421-1.029c0.033-0.359-0.265-0.783-0.785-1.102c-0.075-0.046-0.099-0.145-0.053-0.22   c0.025-0.041,0.067-0.066,0.11-0.075c0.619-0.112,1.48,0.104,1.967,0.864c0.463,0.745,0.471,1.639,0.245,2.396   c-0.185,0.756-0.784,1.562-1.543,2.015c-0.755,0.457-1.58,0.619-2.356,0.645c-0.783,0.008-1.549-0.125-2.274-0.446   c-0.172-0.07-0.37-0.163-0.577-0.292c-0.238-0.137-0.278-0.187-0.422-0.282l-0.085-0.062l-0.029-0.023l-0.057-0.047l-0.115-0.094   c-0.076-0.063-0.146-0.134-0.217-0.203c-0.144-0.136-0.273-0.287-0.404-0.436c-1.006-1.249-1.391-2.846-1.259-4.286   c0.117-1.451,0.727-2.826,1.729-3.846c0.226-0.23,0.591-0.532,0.806-0.665c0.316-0.213,0.574-0.355,0.871-0.511   c0.578-0.293,1.17-0.523,1.769-0.708c1.202-0.354,2.427-0.53,3.646-0.56c1.216-0.031,2.446,0.104,3.585,0.484   c0.08,0.025,0.123,0.111,0.097,0.19C42.174,64.011,42.105,64.052,42.037,64.045z"/></g><path d="M32.65,77.408c-0.478,0.81,0.939,1.646,1.417,0.836C34.545,77.435,33.128,76.599,32.65,77.408z"/><path d="M17.721,71.875c-0.478,0.81,0.939,1.646,1.417,0.836C19.615,71.901,18.198,71.065,17.721,71.875z"/><path d="M6.624,57.687c-0.478,0.81,0.939,1.646,1.417,0.836C8.519,57.713,7.102,56.876,6.624,57.687z"/><path d="M3.117,41.426c-0.478,0.81,0.939,1.646,1.417,0.836C5.012,41.452,3.595,40.616,3.117,41.426z"/><path d="M6.162,27.939c-0.478,0.81,0.94,1.646,1.417,0.836C8.057,27.966,6.64,27.129,6.162,27.939z"/><path d="M12.373,17.412c-0.539,0.914,0.878,1.75,1.417,0.836C14.329,17.334,12.912,16.498,12.373,17.412z"/><path d="M16.746,9.075c-0.539,0.914,0.877,1.75,1.417,0.836C18.702,8.998,17.284,8.161,16.746,9.075z"/><path d="M24.997,23.769c-0.956,1.62,2.284,3.531,3.239,1.911C29.67,23.25,26.43,21.339,24.997,23.769z"/><path d="M27.661,18.791c-0.956,1.619,1.474,3.053,2.43,1.434C31.046,18.604,28.617,17.171,27.661,18.791z"/><path d="M27.649,14.417c-0.616,1.044,1.003,1.999,1.62,0.955C29.885,14.328,28.265,13.372,27.649,14.417z"/><g><path d="M46.506,55.504c-0.66,1.152-0.866,2.498-0.887,3.81c-0.007,1.318,0.19,2.638,0.582,3.886   c0.398,1.238,0.99,2.439,1.875,3.322c0.869,0.855,2.121,1.352,3.337,1.475c2.508,0.25,4.973-0.944,7.173-2.311   c1.131-0.699,2.147-1.469,3.319-2.261c1.215-0.756,2.527-1.361,4.037-1.575c0.741-0.105,1.589-0.076,2.347,0.179   c0.684,0.206,1.434,0.556,2.051,0.992c1.273,0.89,2.219,2.271,2.617,3.75c0.429,1.428,0.404,3.22-0.361,4.639   c-0.367,0.721-0.882,1.379-1.529,1.886c-0.621,0.506-1.446,0.885-2.135,1.054c-0.745,0.193-1.515,0.317-2.356,0.227   c-0.835-0.083-1.653-0.437-2.276-0.926c-0.313-0.243-0.594-0.508-0.846-0.784l-0.111-0.122l-0.082-0.099   c-0.076-0.098-0.155-0.204-0.208-0.291c-0.118-0.183-0.213-0.371-0.293-0.561c-0.324-0.761-0.402-1.554-0.334-2.328   c0.081-0.769,0.319-1.558,0.854-2.199c0.265-0.315,0.602-0.588,0.978-0.761c0.365-0.171,0.747-0.265,1.129-0.303   c0.751-0.058,1.59,0.092,2.165,0.689c0.283,0.294,0.425,0.694,0.448,1.065c0.012,0.375-0.07,0.727-0.19,1.05   c-0.019,0.052-0.077,0.079-0.129,0.059c-0.046-0.017-0.072-0.063-0.064-0.11c0.102-0.645-0.018-1.322-0.463-1.639   c-0.435-0.324-1.071-0.347-1.623-0.203c-0.573,0.142-1.041,0.432-1.308,0.865c-0.28,0.436-0.412,0.998-0.411,1.561   c0.002,0.563,0.138,1.134,0.375,1.594c0.059,0.115,0.125,0.222,0.198,0.315c0.039,0.055,0.066,0.079,0.093,0.113l0.085,0.089   l0.021,0.022c-0.005-0.006,0.027,0.029-0.009-0.01l0.01,0.009l0.042,0.037c0.218,0.202,0.444,0.379,0.674,0.529   c0.909,0.611,1.923,0.593,3.055,0.219c2.202-0.569,3.287-2.975,2.673-5.17c-0.268-1.119-0.862-2.117-1.755-2.82   c-0.467-0.355-0.933-0.607-1.523-0.819c-0.511-0.197-1.035-0.241-1.624-0.19c-1.161,0.105-2.374,0.591-3.448,1.21   c-1.077,0.668-2.237,1.474-3.416,2.141c-1.187,0.682-2.434,1.299-3.768,1.73c-1.327,0.432-2.774,0.661-4.208,0.455   c-0.715-0.101-1.408-0.32-2.057-0.643c-0.634-0.314-1.254-0.727-1.737-1.274c-0.967-1.076-1.517-2.391-1.873-3.714   c-0.345-1.331-0.478-2.706-0.402-4.068c0.088-1.352,0.375-2.74,1.117-3.895c0.028-0.048,0.089-0.064,0.137-0.037   C46.516,55.395,46.531,55.457,46.506,55.504z"/></g><g><path d="M51.989,43.099c2.743-0.951,5.594-1.737,8.545-1.883c1.478-0.057,2.933-0.061,4.431,0.213   c1.478,0.276,2.902,0.833,4.199,1.595c2.596,1.545,4.659,3.84,6.215,6.382c1.554,2.555,2.641,5.388,3.19,8.347   c0.279,1.483,0.417,2.986,0.36,4.536c-0.059,1.477-0.243,3.021-0.633,4.501c-0.395,1.484-0.996,2.951-1.886,4.272   c-0.91,1.303-2.118,2.458-3.522,3.227c-1.409,0.759-2.985,1.214-4.6,1.239c-1.607,0.015-3.267-0.423-4.566-1.413   c-1.439-1.155-1.838-2.95-1.584-4.504c0.15-0.783,0.485-1.543,1.04-2.124c0.545-0.592,1.349-0.908,2.102-0.879   c0.056,0.001,0.099,0.047,0.098,0.103c-0.001,0.048-0.038,0.088-0.083,0.096c-0.7,0.121-1.299,0.51-1.673,1.051   c-0.377,0.542-0.554,1.206-0.577,1.861c-0.083,1.301,0.502,2.667,1.459,3.242c2.246,1.333,5.184,0.949,7.393-0.408   c2.276-1.314,3.706-3.688,4.495-6.299c0.406-1.316,0.633-2.667,0.752-4.089c0.109-1.352,0.048-2.767-0.152-4.149   c-0.416-2.772-1.349-5.491-2.732-7.951c-1.386-2.451-3.255-4.671-5.62-6.19c-1.174-0.764-2.472-1.342-3.84-1.664   c-1.351-0.316-2.825-0.388-4.247-0.396c-2.874,0.009-5.724,0.65-8.504,1.474c-0.053,0.016-0.108-0.014-0.124-0.067   C51.91,43.17,51.939,43.116,51.989,43.099z"/></g><g><path d="M52.718,38.796c3.133-0.664,6.308-1.284,9.586-1.35c3.259-0.087,6.677,0.485,9.69,2.08c3.009,1.62,5.461,3.962,7.548,6.578   c2.069,2.639,3.695,5.662,4.679,8.94c0.999,3.294,1.274,6.756,1.068,10.145c-0.224,3.395-1.051,6.665-2.13,9.748   c-0.56,1.538-1.137,3.053-1.75,4.539c-0.628,1.463-1.172,2.849-1.479,4.212c-0.28,1.342-0.265,2.721,0.39,3.843   c0.686,1.148,1.922,2.214,3.415,2.468l0.025,0.399c-0.853,0.189-1.763,0.043-2.588-0.269c-0.828-0.319-1.597-0.805-2.266-1.474   c-1.372-1.414-1.833-3.46-1.758-5.263c0.039-1.828,0.524-3.502,0.933-5.06c0.429-1.541,0.878-3.058,1.264-4.578   c0.814-3.025,1.567-5.995,2.002-8.974c0.458-2.97,0.445-6.013-0.22-8.909c-0.674-2.908-1.952-5.714-3.679-8.226   c-1.738-2.491-3.889-4.802-6.443-6.381c-2.551-1.624-5.599-2.418-8.724-2.587c-3.132-0.176-6.322,0.154-9.5,0.511L52.718,38.796z"/></g><g><path d="M68.643,38.281c2.053,0.789,4.294,0.902,6.349,0.518c1.025-0.192,2.016-0.509,2.699-1.042   c0.686-0.527,1.173-1.315,1.344-2.135c0.169-0.827-0.008-1.638-0.425-2.209c-0.355-0.538-0.954-1.02-1.63-1.329   c-0.33-0.167-0.669-0.239-0.945-0.26c-0.279-0.028-0.502,0.017-0.834,0.233c-0.292,0.209-0.555,0.489-0.648,0.797   c-0.13,0.306,0.021,0.769,0.412,1.199c0.06,0.066,0.055,0.168-0.011,0.228c-0.034,0.031-0.079,0.044-0.121,0.042   c-0.599-0.041-1.349-0.449-1.616-1.279c-0.248-0.809-0.034-1.642,0.362-2.29c0.355-0.659,1.116-1.265,1.939-1.495   c0.819-0.242,1.621-0.176,2.35-0.014c1.438,0.359,2.752,1.328,3.398,2.797c0.617,1.413,0.567,2.988,0.083,4.284   c-0.474,1.31-1.382,2.424-2.564,3.114c-0.264,0.155-0.682,0.343-0.91,0.41c-0.348,0.108-0.617,0.187-0.93,0.246   c-0.604,0.128-1.206,0.19-1.8,0.205c-1.191,0.028-2.355-0.129-3.479-0.404c-1.115-0.278-2.219-0.718-3.154-1.346l-0.005-0.003   c-0.069-0.046-0.087-0.14-0.041-0.209C68.504,38.278,68.579,38.256,68.643,38.281z"/></g><g><path d="M77.635,44.377c1.318,1.732,3.162,2.994,5.11,3.745c0.974,0.372,1.986,0.637,2.882,0.542   c0.895-0.099,1.747-0.538,2.344-1.174c0.602-0.638,0.907-1.46,0.86-2.223c-0.013-0.711-0.307-1.485-0.776-2.124   c-0.223-0.324-0.507-0.575-0.779-0.736c-0.269-0.169-0.542-0.227-0.953-0.183c-0.762,0.108-1.504,0.559-1.173,1.746   c0.02,0.07-0.021,0.142-0.091,0.162c-0.041,0.011-0.087-0.001-0.118-0.025c-0.46-0.355-0.849-1.062-0.651-1.852   c0.201-0.766,0.785-1.329,1.425-1.655c0.616-0.353,1.511-0.468,2.282-0.252c0.773,0.204,1.39,0.647,1.902,1.138   c0.994,0.999,1.594,2.426,1.419,3.929c-0.169,1.449-0.961,2.723-1.989,3.563c-1.028,0.851-2.326,1.328-3.636,1.319   c-1.319-0.028-2.457-0.509-3.479-1.035c-1.021-0.564-1.94-1.262-2.76-2.052c-0.817-0.788-1.536-1.692-2.033-2.699   c-0.031-0.062-0.006-0.138,0.056-0.169C77.533,44.313,77.599,44.331,77.635,44.377z"/></g><g><path d="M84.213,55.205c0.599,1.655,1.716,3.07,3.038,4.117c0.658,0.523,1.377,0.969,2.091,1.115   c0.714,0.139,1.479,0.006,2.093-0.34c0.619-0.347,1.054-0.908,1.203-1.508c0.04-0.13,0.069-0.348,0.081-0.412   c0.005-0.094,0.03-0.261,0.018-0.288l-0.005-0.196c-0.016-0.308-0.078-0.636-0.184-0.934c-0.092-0.309-0.256-0.563-0.426-0.758   c-0.169-0.194-0.367-0.306-0.695-0.371c-0.616-0.1-1.297,0.076-1.324,1.069c-0.001,0.058-0.05,0.104-0.107,0.102   c-0.034-0.001-0.066-0.021-0.085-0.047c-0.268-0.385-0.396-1.022-0.054-1.581c0.339-0.54,0.922-0.832,1.493-0.929   c0.558-0.122,1.274,0.008,1.813,0.356c0.54,0.343,0.917,0.829,1.188,1.331c0.262,0.511,0.427,1.059,0.458,1.64   c0.011,0.137,0.016,0.296,0,0.471c-0.01,0.196-0.03,0.248-0.045,0.375c-0.064,0.375-0.148,0.587-0.262,0.876   c-0.478,1.074-1.393,1.863-2.384,2.262c-0.996,0.408-2.108,0.463-3.114,0.144c-0.229-0.072-0.542-0.204-0.711-0.303   c-0.241-0.14-0.434-0.254-0.633-0.402c-0.396-0.279-0.755-0.593-1.083-0.929c-1.272-1.364-2.248-3.011-2.554-4.808   c-0.011-0.054,0.024-0.107,0.079-0.118C84.147,55.13,84.195,55.16,84.213,55.205z"/></g><g><path d="M84.985,66.871c0.054,1.473,0.586,2.888,1.375,4.065c0.194,0.296,0.41,0.574,0.647,0.822   c0.106,0.121,0.262,0.256,0.348,0.333c0.149,0.116,0.303,0.234,0.417,0.283c0.525,0.294,1.196,0.384,1.785,0.267   c0.593-0.128,1.109-0.461,1.391-0.925c0.08-0.091,0.15-0.265,0.189-0.321c0.089-0.216,0.091-0.254,0.132-0.4   c0.067-0.261,0.097-0.549,0.083-0.824c-0.002-0.279-0.075-0.536-0.176-0.744c-0.053-0.102-0.113-0.198-0.195-0.27l-0.03-0.029   c0.005,0-0.034-0.022,0.009-0.003l-0.03-0.019l-0.112-0.073c-0.038-0.027-0.085-0.059-0.151-0.089   c-0.488-0.234-1.122-0.211-1.347,0.583c-0.012,0.041-0.055,0.065-0.096,0.053c-0.027-0.008-0.047-0.032-0.055-0.057   c-0.104-0.376-0.028-0.889,0.364-1.242c0.395-0.337,0.919-0.41,1.387-0.347c0.114,0.015,0.242,0.043,0.377,0.086l0.14,0.046   l0.033,0.012l0.067,0.035l0.087,0.046c0.237,0.122,0.438,0.3,0.608,0.494c0.333,0.397,0.508,0.867,0.594,1.325   c0.157,0.936-0.036,1.876-0.703,2.655c-0.618,0.733-1.531,1.12-2.402,1.204c-0.884,0.071-1.761-0.134-2.491-0.646   c-0.209-0.14-0.335-0.267-0.469-0.393c-0.177-0.185-0.288-0.31-0.415-0.479c-0.247-0.317-0.456-0.653-0.636-1   c-0.684-1.393-1.063-2.942-0.876-4.451c0.004-0.042,0.041-0.072,0.082-0.068C84.954,66.803,84.982,66.835,84.985,66.871z"/></g><g><path d="M82.877,75.822c-0.594,1.091-0.787,2.359-0.704,3.556c0.044,0.598,0.155,1.197,0.434,1.667   c0.283,0.465,0.74,0.821,1.247,0.99c0.509,0.165,1.054,0.135,1.491-0.086c0.403-0.185,0.8-0.605,0.99-1.05   c0.217-0.465,0.249-0.903-0.058-1.292c-0.293-0.401-0.852-0.574-1.3-0.063c-0.019,0.021-0.051,0.023-0.072,0.005   c-0.015-0.014-0.02-0.037-0.014-0.056c0.092-0.309,0.356-0.632,0.766-0.716c0.407-0.069,0.792,0.096,1.097,0.321   c0.075,0.056,0.151,0.125,0.228,0.206l0.08,0.093l0.019,0.023l0.031,0.048l0.042,0.066c0.115,0.176,0.183,0.378,0.224,0.579   c0.07,0.405,0.01,0.801-0.113,1.156c-0.272,0.711-0.771,1.301-1.534,1.592c-0.718,0.272-1.514,0.212-2.167-0.08   c-0.66-0.284-1.208-0.792-1.527-1.423c-0.31-0.641-0.365-1.324-0.363-1.966c0.049-1.292,0.397-2.574,1.118-3.62   c0.015-0.023,0.046-0.03,0.069-0.015C82.882,75.771,82.888,75.8,82.877,75.822z"/></g><g><path d="M57.362,37.856c2.317,0.083,4.601-0.573,6.528-1.662c0.96-0.55,1.848-1.205,2.354-1.985   c0.512-0.773,0.731-1.741,0.62-2.634c-0.116-0.899-0.575-1.668-1.204-2.113c-0.08-0.055-0.154-0.115-0.239-0.163   c-0.041-0.026-0.08-0.052-0.124-0.074l-0.062-0.038l-0.031-0.019l-0.015-0.009l-0.008-0.005l-0.003-0.002   c0.116,0.069,0.028,0.018,0.053,0.032c-0.109-0.053-0.31-0.173-0.335-0.165c-0.049-0.014-0.117-0.049-0.219-0.083   c-0.361-0.13-0.771-0.223-1.164-0.251c-0.401-0.054-0.768,0.006-1.066,0.089c-0.296,0.081-0.516,0.225-0.771,0.565   c-0.217,0.323-0.375,0.708-0.347,1.058c-0.007,0.361,0.319,0.762,0.861,1.043c0.079,0.041,0.109,0.137,0.068,0.216   c-0.021,0.042-0.062,0.071-0.104,0.082c-0.609,0.156-1.484,0.002-2.023-0.721c-0.515-0.71-0.586-1.601-0.416-2.373   c0.13-0.767,0.67-1.614,1.396-2.121c0.72-0.509,1.531-0.73,2.304-0.812c0.78-0.063,1.554,0.015,2.3,0.283   c0.177,0.058,0.381,0.136,0.597,0.25c0.247,0.12,0.291,0.167,0.441,0.251l0.087,0.055l0.031,0.021l0.061,0.042l0.121,0.085   c0.081,0.057,0.155,0.123,0.231,0.187c0.153,0.125,0.293,0.267,0.434,0.406c1.093,1.173,1.59,2.739,1.563,4.185   c-0.013,1.455-0.523,2.871-1.45,3.96c-0.208,0.246-0.551,0.573-0.756,0.721c-0.301,0.236-0.547,0.396-0.833,0.572   c-0.556,0.333-1.13,0.605-1.714,0.832c-1.174,0.438-2.382,0.702-3.597,0.818c-1.21,0.118-2.447,0.072-3.611-0.227   c-0.081-0.02-0.13-0.102-0.11-0.183C57.228,37.9,57.293,37.854,57.362,37.856z"/></g><path d="M65.769,23.856c0.418-0.842-1.055-1.575-1.474-0.734C63.877,23.965,65.35,24.697,65.769,23.856z"/><path d="M81.056,28.308c0.418-0.842-1.055-1.575-1.474-0.733C79.164,28.417,80.637,29.149,81.056,28.308z"/><path d="M93.139,41.666c0.419-0.842-1.054-1.575-1.473-0.732C91.247,41.775,92.72,42.508,93.139,41.666z"/><path d="M97.799,57.634c0.419-0.842-1.054-1.574-1.473-0.733C95.908,57.744,97.381,58.476,97.799,57.634z"/><path d="M95.727,71.305c0.419-0.842-1.055-1.575-1.473-0.733C93.834,71.414,95.308,72.146,95.727,71.305z"/><path d="M90.285,82.249c0.472-0.951-1.001-1.683-1.473-0.732C88.338,82.466,89.812,83.198,90.285,82.249z"/><path d="M86.519,90.877c0.473-0.95-1-1.683-1.473-0.733C84.574,91.094,86.047,91.826,86.519,90.877z"/><g><path d="M57.519,48.455c0.627-1.613,2.097-2.458,2.724-4.07c-2.384-0.703-5.7-0.094-8.016,1.153   c-0.665-3.753-2.979-7.374-8.053-5.366c-6.186,2.447-12.12,7.41-17.375-0.876c-0.638,11.568,6.713,19.152,15.841,14.167   c-0.741,1.564-2.268,2.301-3.009,3.866c2.534,0.948,6.292,0.437,8.701-0.871c0,0,0.018-0.024,0.044-0.061   c0.785,3.923,3.358,7.928,8.563,5.425c5.995-2.884,11.56-8.258,17.393-0.369C74.141,49.868,66.266,42.829,57.519,48.455z"/><g><path d="M58.442,48.564c0.803-1.454,1.923-2.621,2.724-4.07c0.247-0.447-0.219-0.739-0.589-0.811    c-3.113-0.605-5.919-0.03-8.777,1.286c0.464,0.104,0.929,0.207,1.393,0.31c-0.661-2.952-2.516-6.773-6.21-6.386    c-7.316,0.766-13.333,8.4-19.3-0.022c-0.405-0.572-1.843-0.246-1.863,0.5c-0.267,10.299,6.286,20.045,17.247,14.661    c-0.45-0.226-0.9-0.452-1.351-0.678c-0.904,1.391-2.106,2.477-3.009,3.866c-0.193,0.296,0.064,0.681,0.365,0.76    c2.518,0.66,8.282,1.223,10.111-1.297c-0.591-0.008-1.183-0.017-1.774-0.025c0.735,2.974,2.772,7.258,6.628,6.646    c7.253-1.152,12.861-9.334,19.409-1.423c0.413,0.499,1.9,0.292,1.863-0.5c-0.48-10.219-7.647-19.632-18.218-13.492    c-1.133,0.658-0.1,1.691,0.854,1.137c9.64-5.6,15.01,4.083,15.406,12.504c0.621-0.167,1.242-0.333,1.863-0.5    c-2.29-2.767-5.286-5.172-9.124-4.216c-2.175,0.542-4.066,1.467-6.03,2.539c-1.181,0.645-2.351,1.294-3.551,1.903    c-4.76,2.414-6.444-2.181-7.169-5.115c-0.18-0.729-1.446-0.478-1.774-0.025c-2.115,1.464-3.99,1.319-5.625-0.433    c0.885-0.952,0.906-1.009,1.62-2.107c0.511-0.786-0.955-0.873-1.351-0.678c-9.991,4.909-14.651-5.331-14.435-13.672    c-0.621,0.167-1.242,0.333-1.863,0.5c2.363,3.335,4.955,5.224,9.137,4.743c5.625-0.646,14.102-8.084,16.21,1.332    c0.13,0.582,1.007,0.487,1.393,0.31c0.816-0.376,8.151-3.371,5.418,0.029c-0.813,1.012-0.845,1.064-1.477,2.209    C56.069,49.298,58.032,49.307,58.442,48.564z"/></g></g><path d="M77.237,76.811c0.838-1.684-2.53-3.358-3.367-1.675C72.614,77.663,75.981,79.337,77.237,76.811z"/><path d="M74.937,81.967c0.837-1.684-1.688-2.939-2.526-1.255C71.573,82.394,74.1,83.65,74.937,81.967z"/><path d="M75.261,86.328c0.54-1.086-1.144-1.923-1.684-0.837S74.722,87.414,75.261,86.328z"/><g><path fill="#000000" d="M56.477,49.075c0.577-1.334,1.837-1.997,2.415-3.33c-1.979-0.665-4.781-0.259-6.764,0.715   c-0.44-3.171-2.268-6.282-6.59-4.758c-5.269,1.859-10.407,5.836-14.556-1.284c-0.9,9.689,5.03,16.287,12.848,12.391   c-0.671,1.29-1.976,1.86-2.647,3.149c2.096,0.876,5.268,0.566,7.33-0.457c0,0,0.016-0.02,0.039-0.049   c0.535,3.318,2.568,6.761,7.016,4.824c5.123-2.231,9.963-6.566,14.61,0.239C70.383,50.787,63.996,44.63,56.477,49.075z"/><g><path d="M57.4,49.185c0.74-1.138,1.667-2.182,2.415-3.33c0.285-0.438-0.251-0.738-0.589-0.811c-2.697-0.582-5-0.167-7.525,0.848    c0.464,0.104,0.929,0.207,1.393,0.31c-0.478-2.509-1.85-5.682-4.946-5.584c-6.125,0.193-11.492,6.585-16.282-0.624    c-0.399-0.602-1.821-0.225-1.863,0.5c-0.51,8.904,4.771,17.004,14.254,12.885c-0.412-0.284-0.824-0.568-1.235-0.853    c-0.842,1.111-1.805,2.038-2.647,3.149c-0.255,0.337-0.211,0.804,0.25,0.934c2.182,0.617,7.057,1.274,8.735-0.872    c-0.591-0.008-1.183-0.017-1.774-0.025c0.643,3.015,1.889,5.207,5.029,5.821c6.531,1.277,10.265-8.81,16.678-0.591    c0.413,0.529,1.874,0.274,1.863-0.5c-0.126-8.824-5.919-16.732-15.106-11.934c-1.168,0.61-0.117,1.644,0.854,1.137    c8.288-4.329,12.196,4.065,12.294,10.946c0.621-0.167,1.242-0.333,1.863-0.5c-1.891-2.424-4.32-4.533-7.628-3.841    c-1.723,0.36-3.208,0.978-4.792,1.741c-1.966,0.947-4.609,2.804-6.91,1.607c-1.473-0.766-1.904-2.947-2.215-4.403    c-0.161-0.753-1.445-0.446-1.774-0.025c-1.639-0.01-3.278-0.019-4.917-0.029c0.709-0.589,1.313-1.271,1.812-2.046    c0.652-0.861-0.636-1.113-1.235-0.853c-8.613,3.742-11.831-5.126-11.442-11.896c-0.621,0.167-1.242,0.333-1.863,0.5    c1.953,2.939,4.076,4.532,7.656,4.29c4.958-0.335,11.842-6.643,13.408,1.585c0.114,0.601,1.016,0.461,1.393,0.31    c7.34-2.948,4.553-0.454,2.999,1.937C54.971,49.86,56.944,49.886,57.4,49.185z"/></g></g><text x="0" y="115" fill="#000000" font-size="5px" font-weight="bold" font-family="'Helvetica Neue', Helvetica, Arial-Unicode, Arial, Sans-serif">Created by Neha Shinde</text><text x="0" y="120" fill="#000000" font-size="5px" font-weight="bold" font-family="'Helvetica Neue', Helvetica, Arial-Unicode, Arial, Sans-serif">from the Noun Project</text></svg>